<svg width="30" height="24" viewBox="0 0 30 24" fill="none" xmlns="http://www.w3.org/2000/svg">
<path d="M19.3701 11.7808C19.8014 11.4357 19.8712 10.8064 19.5261 10.3752C19.1811 9.94399 18.5518 9.87415 18.1206 10.2192L19.3701 11.7808ZM14.9963 14L14.3715 14.7808C14.7367 15.0731 15.2558 15.0731 15.6211 14.7808L14.9963 14ZM11.872 10.2192C11.4408 9.87415 10.8115 9.94399 10.4664 10.3752C10.1214 10.8064 10.1912 11.4357 10.6224 11.7808L11.872 10.2192ZM18.1206 10.2192L14.3715 13.2192L15.6211 14.7808L19.3701 11.7808L18.1206 10.2192ZM15.6211 13.2192L11.872 10.2192L10.6224 11.7808L14.3715 14.7808L15.6211 13.2192Z" fill="#BBB9B9"/>
</svg>
