<svg width="18" height="18" viewBox="0 0 18 18" fill="none" xmlns="http://www.w3.org/2000/svg">
<path d="M3.70711 8.29335C3.31658 7.90283 2.68342 7.90283 2.29289 8.29335C1.90237 8.68388 1.90237 9.31704 2.29289 9.70756L3.70711 8.29335ZM6.71231 12.7128L6.0052 13.4199C6.39572 13.8104 7.02888 13.8104 7.4194 13.4199L6.71231 12.7128ZM15.3747 5.46493C15.7652 5.07442 15.7652 4.44125 15.3747 4.05072C14.9842 3.66019 14.351 3.66017 13.9605 4.05069L15.3747 5.46493ZM2.29289 9.70756L6.0052 13.4199L7.41942 12.0057L3.70711 8.29335L2.29289 9.70756ZM7.4194 13.4199L15.3747 5.46493L13.9605 4.05069L6.00522 12.0056L7.4194 13.4199Z" fill="white"/>
</svg>
