<svg width="20" height="20" viewBox="0 0 20 20" fill="none" xmlns="http://www.w3.org/2000/svg">
<path d="M9.29289 11.7926C8.90236 12.1831 8.90236 12.8163 9.29289 13.2068C9.68341 13.5973 10.3166 13.5973 10.7071 13.2068L9.29289 11.7926ZM12.5 9.99967L13.2071 10.7068C13.5976 10.3163 13.5976 9.68309 13.2071 9.29257L12.5 9.99967ZM10.7071 6.79257C10.3166 6.40204 9.68341 6.40204 9.29289 6.79257C8.90236 7.18309 8.90236 7.81626 9.29289 8.20678L10.7071 6.79257ZM3.33333 8.99968C2.78104 8.99968 2.33333 9.44739 2.33333 9.99968C2.33333 10.552 2.78104 10.9997 3.33333 10.9997L3.33333 8.99968ZM8.52864 16.5395L8.14596 17.4634L8.52864 16.5395ZM8.49999 14.1663C8.49999 13.6141 8.05228 13.1663 7.49999 13.1663C6.94771 13.1663 6.49999 13.6141 6.49999 14.1663H8.49999ZM7.62686 15.6375L6.70298 16.0202V16.0202L7.62686 15.6375ZM16.4852 15.7564L15.5942 15.3024L16.4852 15.7564ZM15.7565 16.4847L15.3025 15.5937L15.7565 16.4847ZM15.7565 3.51466L16.2105 2.62366L15.7565 3.51466ZM16.4852 4.24304L15.5942 4.69703L16.4852 4.24304ZM6.49999 5.833C6.49999 6.38528 6.94771 6.833 7.49999 6.833C8.05228 6.833 8.49999 6.38528 8.49999 5.833H6.49999ZM10.7071 13.2068L13.2071 10.7068L11.7929 9.29257L9.29289 11.7926L10.7071 13.2068ZM13.2071 9.29257L10.7071 6.79257L9.29289 8.20678L11.7929 10.7068L13.2071 9.29257ZM12.5 8.99967L3.33333 8.99968L3.33333 10.9997L12.5 10.9997L12.5 8.99967ZM9.99999 4.33301H14V2.33301H9.99999V4.33301ZM15.6667 5.99963V13.9996H17.6667V5.99963H15.6667ZM14 15.6663H9.99999V17.6663H14V15.6663ZM9.99999 15.6663C9.59802 15.6663 9.34657 15.6658 9.156 15.6528C8.97438 15.6404 8.92226 15.6201 8.91132 15.6156L8.14596 17.4634C8.44131 17.5857 8.73658 17.6288 9.01992 17.6482C9.29432 17.6669 9.6254 17.6663 9.99999 17.6663V15.6663ZM6.49999 14.1663C6.49999 14.5409 6.49945 14.872 6.51817 15.1463C6.5375 15.4297 6.58067 15.7249 6.70298 16.0202L8.55074 15.2548C8.54619 15.2438 8.52592 15.1917 8.51353 15.0102C8.50054 14.8197 8.49999 14.5683 8.49999 14.1663H6.49999ZM8.91132 15.6156C8.74822 15.5481 8.61851 15.4184 8.55074 15.2548L6.70298 16.0202C6.97353 16.6733 7.4923 17.1926 8.14596 17.4634L8.91132 15.6156ZM15.6667 13.9996C15.6667 14.4829 15.6659 14.7852 15.6474 15.0131C15.6297 15.2292 15.6011 15.2887 15.5942 15.3024L17.3762 16.2104C17.5509 15.8675 17.613 15.5153 17.6407 15.1756C17.6675 14.8476 17.6667 14.4497 17.6667 13.9996H15.6667ZM14 17.6663C14.4502 17.6663 14.848 17.6671 15.176 17.6403C15.5158 17.6125 15.8678 17.5503 16.2105 17.3757L15.3025 15.5937C15.2887 15.6007 15.2291 15.6293 15.0131 15.6469C14.7854 15.6656 14.4832 15.6663 14 15.6663V17.6663ZM15.5942 15.3024C15.5305 15.4273 15.4285 15.5295 15.3025 15.5937L16.2105 17.3757C16.7117 17.1203 17.1203 16.7126 17.3762 16.2104L15.5942 15.3024ZM14 4.33301C14.4832 4.33301 14.7854 4.33379 15.0131 4.35239C15.2291 4.37004 15.2887 4.39863 15.3025 4.40567L16.2105 2.62366C15.8678 2.44904 15.5158 2.3868 15.176 2.35904C14.848 2.33223 14.4502 2.33301 14 2.33301V4.33301ZM17.6667 5.99963C17.6667 5.54953 17.6675 5.15173 17.6407 4.82372C17.613 4.48402 17.5509 4.13188 17.3762 3.78905L15.5942 4.69703C15.6012 4.71072 15.6297 4.77017 15.6474 4.98628C15.6659 5.21408 15.6667 5.51632 15.6667 5.99963H17.6667ZM15.3025 4.40567C15.4283 4.46979 15.5305 4.572 15.5942 4.69703L17.3762 3.78905C17.1203 3.28688 16.7118 2.87911 16.2105 2.62366L15.3025 4.40567ZM8.49999 5.833C8.49999 5.43103 8.50054 5.17964 8.51353 4.98914C8.52592 4.80763 8.54619 4.75553 8.55074 4.74454L6.70298 3.97917C6.58067 4.27447 6.5375 4.56966 6.51817 4.853C6.49945 5.12736 6.49999 5.45839 6.49999 5.833H8.49999ZM9.99999 2.33301C9.62539 2.33301 9.29431 2.33247 9.01991 2.35118C8.73656 2.37051 8.44129 2.41366 8.14596 2.536L8.91132 4.38375C8.92227 4.37922 8.9744 4.35894 9.15602 4.34655C9.34658 4.33355 9.59803 4.33301 9.99999 4.33301V2.33301ZM8.55074 4.74454C8.6185 4.58097 8.74819 4.45133 8.91132 4.38375L8.14596 2.536C7.49233 2.80674 6.97354 3.32599 6.70298 3.97917L8.55074 4.74454Z" fill="white"/>
</svg>
