<svg width="20" height="17" viewBox="0 0 20 17" fill="none" xmlns="http://www.w3.org/2000/svg">
<path d="M18 15.9999C18 16.5522 18.4477 16.9999 19 16.9999C19.5523 16.9999 20 16.5522 20 15.9999H18ZM15.2294 11.2542C14.6918 11.1275 14.1533 11.4606 14.0267 11.9982C13.9 12.5358 14.2331 13.0742 14.7706 13.2009L15.2294 11.2542ZM12 16C12 16.5523 12.4477 17 13 17C13.5523 17 14 16.5523 14 16H12ZM0 16C0 16.5523 0.447715 17 1 17C1.55228 17 2 16.5523 2 16H0ZM13 8C12.4477 8 12 8.44772 12 9C12 9.55228 12.4477 10 13 10V8ZM13 0C12.4477 0 12 0.447715 12 1C12 1.55228 12.4477 2 13 2V0ZM20 15.9999C20 13.5593 17.7332 11.8442 15.2294 11.2542L14.7706 13.2009C16.9276 13.7091 18 14.9573 18 15.9999H20ZM14 16C14 14.457 13.0619 13.1826 11.7973 12.3395C10.5258 11.4918 8.82674 11 7 11V13C8.48697 13 9.78793 13.4036 10.6879 14.0036C11.5949 14.6083 12 15.3338 12 16H14ZM7 11C5.17326 11 3.47422 11.4918 2.20266 12.3395C0.938089 13.1826 0 14.457 0 16H2C2 15.3338 2.40506 14.6083 3.31206 14.0036C4.21207 13.4036 5.51303 13 7 13V11ZM13 10C15.7614 10 18 7.76142 18 5H16C16 6.65685 14.6569 8 13 8V10ZM18 5C18 2.23858 15.7614 0 13 0V2C14.6569 2 16 3.34315 16 5H18ZM7 8C5.34315 8 4 6.65685 4 5H2C2 7.76142 4.23858 10 7 10V8ZM4 5C4 3.34315 5.34315 2 7 2V0C4.23858 0 2 2.23858 2 5H4ZM7 2C8.65685 2 10 3.34315 10 5H12C12 2.23858 9.76142 0 7 0V2ZM10 5C10 6.65685 8.65685 8 7 8V10C9.76142 10 12 7.76142 12 5H10Z" fill="#BBB9B9"/>
</svg>
