<svg width="20" height="20" viewBox="0 0 20 20" fill="none" xmlns="http://www.w3.org/2000/svg">
<path fill-rule="evenodd" clip-rule="evenodd" d="M13.5728 10.5354L12.1442 11.964H10.7156L9.46564 13.214V11.964H7.85849V6.60686H13.5728V10.5354ZM12.5014 7.85686H11.7871V9.99972H12.5014V7.85686ZM9.82278 7.85686H10.5371V9.99972H9.82278V7.85686Z" fill="#BBB9B9"/>
<path fill-rule="evenodd" clip-rule="evenodd" d="M16.875 0C18.6009 0 20 1.39911 20 3.125V16.875C20 18.6009 18.6009 20 16.875 20H3.125C1.39911 20 0 18.6009 0 16.875V3.125C0 1.39911 1.39911 0 3.125 0H16.875ZM7.50135 5.89258L5.71564 7.67829V14.1069H7.85849V15.8926L9.64421 14.1069H11.0728L14.2871 10.8926V5.89258H7.50135Z" fill="#BBB9B9"/>
</svg>
