<svg width="24" height="24" viewBox="0 0 24 24" fill="none" xmlns="http://www.w3.org/2000/svg">
<path d="M15.2838 15.3491C15.8077 15.5237 16.3741 15.2406 16.5487 14.7166C16.7234 14.1927 16.4402 13.6264 15.9163 13.4517L15.2838 15.3491ZM12 13.2004H11C11 13.6308 11.2755 14.013 11.6838 14.1491L12 13.2004ZM13 8.18265C13 7.63036 12.5523 7.18265 12 7.18265C11.4477 7.18265 11 7.63036 11 8.18265H13ZM15.9163 13.4517L12.3163 12.2517L11.6838 14.1491L15.2838 15.3491L15.9163 13.4517ZM13 13.2004V8.18265H11V13.2004H13ZM20.6 12.0004C20.6 16.75 16.7497 20.6004 12 20.6004V22.6004C17.8542 22.6004 22.6 17.8546 22.6 12.0004H20.6ZM12 20.6004C7.25037 20.6004 3.40002 16.75 3.40002 12.0004H1.40002C1.40002 17.8546 6.14581 22.6004 12 22.6004V20.6004ZM3.40002 12.0004C3.40002 7.25074 7.25037 3.40039 12 3.40039V1.40039C6.14581 1.40039 1.40002 6.14617 1.40002 12.0004H3.40002ZM12 3.40039C16.7497 3.40039 20.6 7.25074 20.6 12.0004H22.6C22.6 6.14617 17.8542 1.40039 12 1.40039V3.40039Z" fill="white"/>
</svg>
