<svg width="24" height="24" viewBox="0 0 24 24" fill="none" xmlns="http://www.w3.org/2000/svg">
<path d="M11.0487 3.35241H5.04873C3.06051 3.35241 1.44873 4.96418 1.44873 6.95241V18.9525C1.44873 20.9407 3.06051 22.5525 5.04873 22.5525H17.0487C19.037 22.5525 20.6487 20.9407 20.6487 18.9525L20.6487 12.9525M7.44873 16.5524L11.8147 15.6727C12.0465 15.626 12.2593 15.5119 12.4264 15.3446L22.2001 5.56559C22.6687 5.09674 22.6684 4.33675 22.1994 3.86829L20.129 1.80021C19.6602 1.33194 18.9006 1.33226 18.4322 1.80092L8.65749 11.581C8.49068 11.7479 8.37678 11.9603 8.33003 12.1916L7.44873 16.5524Z" stroke="white" strokeWidth="2" strokeLinecap="round" strokeLinejoin="round"/>
</svg>
