<svg width="24" height="24" viewBox="0 0 24 24" fill="none" xmlns="http://www.w3.org/2000/svg">
<path d="M5.29255 16.4291C5.68307 16.8197 6.31624 16.8197 6.70676 16.4291C7.09729 16.0386 7.09729 15.4054 6.70676 15.0149L5.29255 16.4291ZM2.39966 12.122L1.69255 11.4149C1.30203 11.8054 1.30203 12.4386 1.69255 12.8291L2.39966 12.122ZM6.70676 9.22913C7.09729 8.8386 7.09729 8.20544 6.70676 7.81492C6.31624 7.42439 5.68308 7.42439 5.29255 7.81492L6.70676 9.22913ZM18.7074 7.81491C18.3168 7.42439 17.6837 7.42439 17.2931 7.81491C16.9026 8.20544 16.9026 8.8386 17.2931 9.22913L18.7074 7.81491ZM21.6002 12.122L22.3074 12.8291C22.6979 12.4386 22.6979 11.8054 22.3074 11.4149L21.6002 12.122ZM17.2931 15.0149C16.9026 15.4054 16.9026 16.0386 17.2931 16.4291C17.6837 16.8197 18.3168 16.8197 18.7074 16.4291L17.2931 15.0149ZM9.31778 18.2996C9.17552 18.8333 9.4928 19.3812 10.0265 19.5235C10.5601 19.6657 11.108 19.3484 11.2503 18.8148L9.31778 18.2996ZM11.9997 12.1214L11.034 11.8614L11.0334 11.8639L11.9997 12.1214ZM14.7635 5.70337C14.9071 5.17008 14.5912 4.62135 14.0579 4.47775C13.5246 4.33415 12.9759 4.65006 12.8323 5.18335L14.7635 5.70337ZM6.70676 15.0149L3.10677 11.4149L1.69255 12.8291L5.29255 16.4291L6.70676 15.0149ZM3.10676 12.8291L6.70676 9.22913L5.29255 7.81492L1.69255 11.4149L3.10676 12.8291ZM17.2931 9.22913L20.8931 12.8291L22.3074 11.4149L18.7074 7.81491L17.2931 9.22913ZM20.8931 11.4149L17.2931 15.0149L18.7074 16.4291L22.3074 12.8291L20.8931 11.4149ZM11.2503 18.8148L12.9659 12.379L11.0334 11.8639L9.31778 18.2996L11.2503 18.8148ZM12.9653 12.3814L14.7635 5.70337L12.8323 5.18335L11.0341 11.8614L12.9653 12.3814Z" fill="white"/>
</svg>
