<svg width="24" height="24" viewBox="0 0 24 24" fill="none" xmlns="http://www.w3.org/2000/svg">
<path d="M19.4667 2.40039C20.6449 2.40039 21.6 3.34243 21.6 4.5045L21.6 8.09632C21.6 9.25839 20.6449 10.2004 19.4667 10.2004H16.2667C15.0885 10.2004 14.1334 9.25839 14.1334 8.09632L14.1334 4.5045C14.1334 3.34243 15.0885 2.40039 16.2667 2.40039L19.4667 2.40039Z" stroke="white" strokeWidth="2" strokeLinecap="round" strokeLinejoin="round"/>
<path d="M4.53336 2.40039C3.35515 2.40039 2.40002 3.34243 2.40002 4.5045L2.40003 8.09632C2.40003 9.25839 3.35516 10.2004 4.53337 10.2004H7.73337C8.91157 10.2004 9.8667 9.25839 9.8667 8.09632L9.86669 4.5045C9.86669 3.34243 8.91156 2.40039 7.73336 2.40039L4.53336 2.40039Z" stroke="white" strokeWidth="2" strokeLinecap="round" strokeLinejoin="round"/>
<path d="M19.4667 13.8004C20.6449 13.8004 21.6 14.7425 21.6 15.9045V19.4963C21.6 20.6584 20.6449 21.6004 19.4667 21.6004H16.2667C15.0885 21.6004 14.1334 20.6584 14.1334 19.4963L14.1334 15.9045C14.1334 14.7425 15.0885 13.8004 16.2667 13.8004H19.4667Z" stroke="white" strokeWidth="2" strokeLinecap="round" strokeLinejoin="round"/>
<path d="M4.53337 13.8004C3.35516 13.8004 2.40003 14.7425 2.40003 15.9045L2.40004 19.4963C2.40004 20.6584 3.35516 21.6004 4.53337 21.6004H7.73337C8.91157 21.6004 9.8667 20.6584 9.8667 19.4963L9.8667 15.9045C9.8667 14.7425 8.91157 13.8004 7.73336 13.8004H4.53337Z" stroke="white" strokeWidth="2" strokeLinecap="round" strokeLinejoin="round"/>
</svg>
