<svg width="81" height="81" viewBox="0 0 81 81" fill="none" xmlns="http://www.w3.org/2000/svg">
<path d="M49.0913 49.0915C44.3465 53.8364 36.6535 53.8364 31.9087 49.0915M49.0913 49.0915C53.8362 44.3467 53.8362 36.6537 49.0913 31.9089M49.0913 49.0915L61.9784 61.9786M31.9087 49.0915C27.1638 44.3467 27.1638 36.6537 31.9087 31.9089M31.9087 49.0915L19.0216 61.9786M31.9087 31.9089C36.6535 27.164 44.3465 27.164 49.0913 31.9089M31.9087 31.9089L19.0216 19.0218M49.0913 31.9089L61.9784 19.0218M63.4103 63.4105C50.7573 76.0634 30.2427 76.0634 17.5897 63.4105C4.93676 50.7575 4.93676 30.2429 17.5897 17.5899C30.2427 4.93696 50.7573 4.93696 63.4103 17.5899C76.0632 30.2429 76.0632 50.7575 63.4103 63.4105Z" stroke="white" strokeWidth="2" strokeLinecap="round" strokeLinejoin="round"/>
</svg>
