<svg width="24" height="24" viewBox="0 0 24 24" fill="none" xmlns="http://www.w3.org/2000/svg">
<path d="M15.2 19.2004C15.2 20.5259 14.1255 21.6004 12.8 21.6004C11.4745 21.6004 4.80002 21.6004 4.80002 21.6004C3.47454 21.6004 2.40002 20.5259 2.40002 19.2004C2.40002 17.8749 2.40002 12.5259 2.40002 11.2004C2.40002 9.87491 3.47454 8.80039 4.80003 8.80039L12.8 8.80039C14.1255 8.80039 15.2 9.87491 15.2 11.2004V19.2004Z" stroke="white" strokeWidth="2" strokeLinecap="round" strokeLinejoin="round"/>
<path d="M21.6 12.8004C21.6 14.1259 20.5255 15.2004 19.2 15.2004C17.8745 15.2004 11.2 15.2004 11.2 15.2004C9.87454 15.2004 8.80002 14.1259 8.80002 12.8004C8.80002 11.4749 8.80002 6.12587 8.80002 4.80039C8.80002 3.47491 9.87454 2.40039 11.2 2.40039L19.2 2.40039C20.5255 2.40039 21.6 3.47491 21.6 4.80039V12.8004Z" stroke="white" strokeWidth="2" strokeLinecap="round" strokeLinejoin="round"/>
</svg>
