<svg width="81" height="81" viewBox="0 0 81 81" fill="none" xmlns="http://www.w3.org/2000/svg">
<path d="M15.2973 36.9016C15.2973 20.9958 28.1915 8.10156 44.0973 8.10156C60.0031 8.10156 72.8973 20.9958 72.8973 36.9016C72.8973 41.0416 72.0237 44.9777 70.4508 48.5354L72.9028 65.6988L58.194 62.0216C54.0271 64.365 49.2183 65.7016 44.0973 65.7016M8.1007 54.9016C8.1007 57.4891 8.64664 59.9491 9.62959 62.1727L8.09729 72.8998L17.2894 70.6016C19.8934 72.0662 22.8987 72.9016 26.099 72.9016C36.0392 72.9016 44.0973 64.8427 44.0973 54.9016C44.0973 44.9604 36.0392 36.9016 26.099 36.9016C16.1588 36.9016 8.1007 44.9604 8.1007 54.9016Z" stroke="white" strokeWidth="2" strokeLinecap="round" strokeLinejoin="round"/>
</svg>
